<?xml version="1.0" encoding="UTF-8"?>
<svg id="Camada_1" xmlns="http://www.w3.org/2000/svg" version="1.1" xmlns:xlink="http://www.w3.org/1999/xlink" viewBox="0 0 345 323">
  <!-- Generator: Adobe Illustrator 29.0.0, SVG Export Plug-In . SVG Version: 2.1.0 Build 186)  -->
  <defs>
    <style>
      .st0 {
        fill: url(#Gradiente_sem_nome_8);
      }

      .st0, .st1, .st2 {
        display: none;
      }

      .st3 {
        fill: url(#Gradiente_sem_nome_42212);
      }

      .st4 {
        fill: url(#Gradiente_sem_nome_4229);
      }

      .st5 {
        fill: url(#Gradiente_sem_nome_42210);
      }

      .st6 {
        fill: url(#Gradiente_sem_nome_42211);
      }

      .st7 {
        fill: url(#Gradiente_sem_nome_422);
      }

      .st8 {
        fill: url(#Gradiente_sem_nome_4226);
      }

      .st9 {
        fill: url(#Gradiente_sem_nome_4224);
      }

      .st10 {
        fill: url(#Gradiente_sem_nome_4227);
      }

      .st11 {
        fill: url(#Gradiente_sem_nome_4221);
      }

      .st1 {
        stroke: url(#Gradiente_sem_nome_42213);
      }

      .st1, .st12 {
        fill: none;
        stroke-miterlimit: 10;
        stroke-width: 7px;
      }

      .st13 {
        fill: url(#Gradiente_sem_nome_4223);
      }

      .st14 {
        fill: url(#Gradiente_sem_nome_4225);
      }

      .st15 {
        fill: url(#Gradiente_sem_nome_4222);
      }

      .st16 {
        fill: url(#Gradiente_sem_nome_4228);
      }

      .st12 {
        stroke: #000;
      }
    </style>
    <linearGradient id="Gradiente_sem_nome_422" data-name="Gradiente sem nome 422" x1="172.51" y1="3.02" x2="172.51" y2="311.96" gradientUnits="userSpaceOnUse">
      <stop offset="0" stop-color="#000d6c"/>
      <stop offset=".12" stop-color="#001478"/>
      <stop offset=".33" stop-color="#002998"/>
      <stop offset=".54" stop-color="#0041bf"/>
      <stop offset=".76" stop-color="#0050c4"/>
      <stop offset="1" stop-color="#005dc9"/>
    </linearGradient>
    <linearGradient id="Gradiente_sem_nome_4221" data-name="Gradiente sem nome 422" x1="86.2" y1="3.02" x2="86.2" y2="311.96" xlink:href="#Gradiente_sem_nome_422"/>
    <linearGradient id="Gradiente_sem_nome_4222" data-name="Gradiente sem nome 422" x1="171.2" x2="171.2" y2="311.96" xlink:href="#Gradiente_sem_nome_422"/>
    <linearGradient id="Gradiente_sem_nome_4223" data-name="Gradiente sem nome 422" x1="155.2" y1="3.02" x2="155.2" y2="311.96" xlink:href="#Gradiente_sem_nome_422"/>
    <linearGradient id="Gradiente_sem_nome_4224" data-name="Gradiente sem nome 422" x1="249.2" y1="3.02" x2="249.2" y2="311.96" xlink:href="#Gradiente_sem_nome_422"/>
    <linearGradient id="Gradiente_sem_nome_4225" data-name="Gradiente sem nome 422" x1="155.2" y1="3.02" x2="155.2" y2="311.96" xlink:href="#Gradiente_sem_nome_422"/>
    <linearGradient id="Gradiente_sem_nome_4226" data-name="Gradiente sem nome 422" x1="191.87" y1="3.02" x2="191.87" y2="311.96" xlink:href="#Gradiente_sem_nome_422"/>
    <linearGradient id="Gradiente_sem_nome_4227" data-name="Gradiente sem nome 422" x1="231.12" y1="3.02" x2="231.12" y2="311.96" xlink:href="#Gradiente_sem_nome_422"/>
    <linearGradient id="Gradiente_sem_nome_4228" data-name="Gradiente sem nome 422" x1="229.48" y1="3.02" x2="229.48" y2="311.96" xlink:href="#Gradiente_sem_nome_422"/>
    <linearGradient id="Gradiente_sem_nome_4229" data-name="Gradiente sem nome 422" x1="155.2" y1="3.02" x2="155.2" y2="311.96" xlink:href="#Gradiente_sem_nome_422"/>
    <linearGradient id="Gradiente_sem_nome_42210" data-name="Gradiente sem nome 422" x1="106.92" y1="3.02" x2="106.92" y2="311.96" xlink:href="#Gradiente_sem_nome_422"/>
    <linearGradient id="Gradiente_sem_nome_42211" data-name="Gradiente sem nome 422" x1="171.2" x2="171.2" y2="311.96" xlink:href="#Gradiente_sem_nome_422"/>
    <linearGradient id="Gradiente_sem_nome_42212" data-name="Gradiente sem nome 422" x1="155.2" y1="3.02" x2="155.2" y2="311.96" xlink:href="#Gradiente_sem_nome_422"/>
    <linearGradient id="Gradiente_sem_nome_8" data-name="Gradiente sem nome 8" x1="0" y1="161.5" x2="345" y2="161.5" gradientUnits="userSpaceOnUse">
      <stop offset="0" stop-color="#00087f"/>
      <stop offset=".1" stop-color="#050c81"/>
      <stop offset=".23" stop-color="#131b88"/>
      <stop offset=".36" stop-color="#2c3295"/>
      <stop offset=".5" stop-color="#4e54a6"/>
      <stop offset=".65" stop-color="#7a7ebc"/>
      <stop offset=".81" stop-color="#b0b2d7"/>
      <stop offset=".96" stop-color="#eeeff6"/>
      <stop offset="1" stop-color="#fff"/>
    </linearGradient>
    <linearGradient id="Gradiente_sem_nome_42213" data-name="Gradiente sem nome 422" x1="172.5" y1="13.22" x2="172.5" y2="309.78" xlink:href="#Gradiente_sem_nome_422"/>
  </defs>
  <g class="st2">
    <path class="st12" d="M24.5,140.5s-21-21-9-49c9.88-23.05,33-23,33-23,0,0,4-26,34-39,26.27-11.39,57,4,57,4,0,0,12.67-11.9,46-9,23,2,34,15,34,15,0,0,29,0,52,14s25,39,25,39c0,0,37,11,33,58s-33,49-33,49c0,0,4,35-30,43,0,0-2,63-19,64,0,0-11,3-16-24s-33-49-39-49c0,0-55,20-77-15,0,0-53,8-52-33,0,0-46,2-39-45Z"/>
    <g>
      <circle class="st12" cx="84.5" cy="86.5" r="14"/>
      <circle class="st12" cx="169.5" cy="159.5" r="14"/>
      <circle class="st12" cx="153.5" cy="52.5" r="14"/>
      <circle class="st12" cx="153.5" cy="239.5" r="14"/>
      <circle class="st12" cx="247.5" cy="86.5" r="14"/>
      <line class="st12" x1="153.5" y1="66.5" x2="153.5" y2="122"/>
      <polyline class="st12" points="195.83 26.05 195.5 84.5 184.5 95.5 184.5 122"/>
      <polyline class="st12" points="247.5 100.5 247.5 132.72 236.11 144.11 207.83 144.11"/>
      <polyline class="st12" points="207.83 176.13 231.57 176.13 244.22 188.78 244.22 305.68"/>
      <line class="st12" x1="153.5" y1="225.5" x2="153.5" y2="196.3"/>
      <polyline class="st12" points="84.5 100.5 84.5 129.15 96.68 141.32 129.45 141.32"/>
      <rect class="st12" x="129.5" y="119.5" width="80" height="80" rx="12.71" ry="12.71"/>
    </g>
  </g>
  <g>
    <path class="st7" d="M318.66,97.56c-6.76-6.66-13.79-10.05-17.26-11.44-1.1-6.81-6.01-27.03-26.37-39.43-20.79-12.66-45.84-14.27-52.29-14.48-3.5-3.48-15.01-13.26-35.23-15.02-27.64-2.4-41.88,5.08-46.75,8.42-7.49-3.3-34.12-13.47-57.95-3.15-25.89,11.22-33.49,31.48-35.45,38.9-6.96.78-24.72,4.74-33.37,24.93-11.01,25.7,4.01,46.18,8.53,51.5-1.83,14.43,1.01,25.93,8.46,34.19,9.6,10.66,24.08,12.75,30.77,13.12.47,9.68,3.98,17.47,10.45,23.17,13.6,11.99,36.09,10.85,43.28,10.12,6.1,8.75,14.82,14.78,25.76,17.92-.01-.22-.03-.43-.03-.65,0-2.25.55-4.38,1.49-6.26-8.78-2.6-16.89-7.63-22.53-16.6l-1.22-1.94-2.27.34c-.26.04-26.27,3.8-39.86-8.18-5.61-4.95-8.35-12.11-8.12-21.28l.08-3.73-3.73.15c-.19,0-18.58.61-28.91-10.9-6.24-6.95-8.42-17.07-6.48-30.08l.26-1.74-1.25-1.25c-.19-.19-19.2-19.62-8.26-45.15,8.81-20.55,28.93-20.88,29.78-20.88h2.99s.47-2.96.47-2.96c.16-.99,4.19-24.31,31.93-36.33,24.42-10.58,53.75,3.77,54.04,3.92l2.17,1.05,1.78-1.61c.12-.11,12.29-10.78,43.32-8.09,21.14,1.84,31.54,13.67,31.63,13.77l1.05,1.24h1.62c.28,0,28.33.19,50.18,13.49,21.12,12.85,23.31,36.06,23.33,36.29l.2,2.38,2.28.69c1.4.42,34.22,10.89,30.52,54.35-3.67,43.15-28.71,45.72-29.75,45.8l-3.65.25.42,3.64c.15,1.3,3.29,31.99-27.32,39.2l-2.61.61-.08,2.68c0,.16-.52,15.7-3.08,31.17-4.45,26.9-10.79,29.34-12.63,29.45l-.21-.07-.44.17c-2.21.25-8.34-3.06-11.7-21.24-5.28-28.53-34.4-51.86-42.44-51.86h-.62s-.58.21-.58.21c-.24.09-10.93,3.87-24.46,5.06.42,1.34.65,2.76.65,4.23,0,.96-.1,1.91-.28,2.81,12.57-1.09,22.74-4.26,25.65-5.24,5.69,1.43,30.5,20.74,35.19,46.06,2.41,13.01,6.57,21.45,12.38,25.1,2.42,1.52,4.58,1.87,6.06,1.87.63,0,1.14-.06,1.49-.13,8.88-.75,15.04-12.3,18.84-35.28,2.03-12.27,2.8-24.29,3.06-29.46,27.75-7.99,30.25-33.66,30.23-42.83,8.37-2.08,29.44-11.3,32.87-51.6,2.18-25.63-7.51-41.02-16.03-49.41Z"/>
    <g>
      <path class="st11" d="M86.2,100.18c-9.65,0-17.5-7.85-17.5-17.5s7.85-17.5,17.5-17.5,17.5,7.85,17.5,17.5-7.85,17.5-17.5,17.5ZM86.2,72.18c-5.79,0-10.5,4.71-10.5,10.5s4.71,10.5,10.5,10.5,10.5-4.71,10.5-10.5-4.71-10.5-10.5-10.5Z"/>
      <path class="st15" d="M171.2,173.18c-9.65,0-17.5-7.85-17.5-17.5s7.85-17.5,17.5-17.5,17.5,7.85,17.5,17.5-7.85,17.5-17.5,17.5ZM171.2,145.18c-5.79,0-10.5,4.71-10.5,10.5s4.71,10.5,10.5,10.5,10.5-4.71,10.5-10.5-4.71-10.5-10.5-10.5Z"/>
      <path class="st13" d="M155.2,66.18c-9.65,0-17.5-7.85-17.5-17.5s7.85-17.5,17.5-17.5,17.5,7.85,17.5,17.5-7.85,17.5-17.5,17.5ZM155.2,38.18c-5.79,0-10.5,4.71-10.5,10.5s4.71,10.5,10.5,10.5,10.5-4.71,10.5-10.5-4.71-10.5-10.5-10.5Z"/>
      <path class="st9" d="M249.2,100.18c-9.65,0-17.5-7.85-17.5-17.5s7.85-17.5,17.5-17.5,17.5,7.85,17.5,17.5-7.85,17.5-17.5,17.5ZM249.2,72.18c-5.79,0-10.5,4.71-10.5,10.5s4.71,10.5,10.5,10.5,10.5-4.71,10.5-10.5-4.71-10.5-10.5-10.5Z"/>
      <rect class="st14" x="151.7" y="62.68" width="7" height="55.5"/>
      <polygon class="st8" points="189.7 118.18 182.7 118.18 182.7 90.23 193.71 79.22 194.03 22.2 201.03 22.24 200.69 82.14 189.7 93.13 189.7 118.18"/>
      <polygon class="st10" points="239.26 143.79 209.53 143.79 209.53 136.79 236.36 136.79 245.7 127.45 245.7 96.68 252.7 96.68 252.7 130.35 239.26 143.79"/>
      <polygon class="st16" points="249.42 301.86 242.42 301.86 242.42 186.4 231.83 175.81 209.53 175.81 209.53 168.81 234.73 168.81 249.42 183.5 249.42 301.86"/>
      <rect class="st4" x="151.7" y="192.48" width="7" height="29.2"/>
      <polygon class="st5" points="131.15 141 96.93 141 82.7 126.78 82.7 96.68 89.7 96.68 89.7 123.88 99.83 134 131.15 134 131.15 141"/>
      <path class="st6" d="M198.49,199.18h-54.57c-8.94,0-16.21-7.27-16.21-16.21v-54.57c0-8.94,7.27-16.21,16.21-16.21h54.57c8.94,0,16.21,7.27,16.21,16.21v54.57c0,8.94-7.27,16.21-16.21,16.21ZM143.91,119.18c-5.08,0-9.21,4.13-9.21,9.21v54.57c0,5.08,4.13,9.21,9.21,9.21h54.57c5.08,0,9.21-4.13,9.21-9.21v-54.57c0-5.08-4.13-9.21-9.21-9.21h-54.57Z"/>
      <path class="st3" d="M155.2,253.18c-9.65,0-17.5-7.85-17.5-17.5s7.85-17.5,17.5-17.5,17.5,7.85,17.5,17.5-7.85,17.5-17.5,17.5ZM155.2,225.18c-5.79,0-10.5,4.71-10.5,10.5s4.71,10.5,10.5,10.5,10.5-4.71,10.5-10.5-4.71-10.5-10.5-10.5Z"/>
    </g>
  </g>
  <rect class="st0" width="345" height="323"/>
  <path class="st1" d="M168.9,238.49c12.57-1.09,22.74-4.26,25.65-5.24,5.69,1.43,30.5,20.74,35.19,46.06,2.41,13.01,6.57,21.45,12.38,25.1,2.42,1.52,4.58,1.87,6.06,1.87.63,0,1.14-.06,1.49-.13,8.88-.75,15.04-12.3,18.84-35.28,2.03-12.27,2.8-24.29,3.06-29.46,27.75-7.99,30.25-33.66,30.23-42.83,8.37-2.08,29.44-11.3,32.87-51.6,2.18-25.63-7.51-41.02-16.03-49.41-6.76-6.66-13.79-10.05-17.26-11.44-1.1-6.81-6.01-27.03-26.37-39.43-20.79-12.66-45.84-14.27-52.29-14.48-3.5-3.48-15.01-13.26-35.23-15.02-27.64-2.4-41.88,5.08-46.75,8.42-7.49-3.3-34.12-13.47-57.95-3.15-25.89,11.22-33.49,31.48-35.45,38.9-6.96.78-24.72,4.74-33.37,24.93-11.01,25.7,4.01,46.18,8.53,51.5-1.83,14.43,1.01,25.93,8.46,34.19,9.6,10.66,24.08,12.75,30.77,13.12.47,9.68,3.98,17.47,10.45,23.17,13.6,11.99,36.09,10.85,43.28,10.12,6.1,8.75,14.82,14.78,25.76,17.92,0,0,15.59,2.65,27.68,2.16Z"/>
</svg>